<?xml version="1.0" standalone="no"?>
<!DOCTYPE svg PUBLIC "-//W3C//DTD SVG 20010904//EN"
 "http://www.w3.org/TR/2001/REC-SVG-20010904/DTD/svg10.dtd">
<svg version="1.0" xmlns="http://www.w3.org/2000/svg"
 width="500.000000pt" height="500.000000pt" viewBox="0 0 500.000000 500.000000"
 preserveAspectRatio="xMidYMid meet">

<g transform="translate(0.000000,500.000000) scale(0.100000,-0.100000)"
fill="#000000" stroke="none">
<path d="M2175 4845 c-407 -62 -771 -212 -1088 -451 -524 -393 -858 -968 -937
-1615 -17 -137 -8 -545 15 -669 76 -416 236 -770 489 -1087 320 -398 738 -673
1233 -808 207 -57 375 -78 613 -78 331 0 582 49 898 175 458 183 854 521 1124
958 84 136 104 176 171 345 71 176 121 359 149 539 30 198 30 494 0 692 -92
598 -395 1122 -865 1500 -316 253 -670 413 -1087 490 -128 23 -583 29 -715 9z
m35 -370 c0 -4 -735 -1913 -818 -2124 -16 -43 -229 48 -357 152 -129 105 -218
218 -278 351 -93 203 -87 471 13 648 269 473 764 834 1309 953 115 25 131 28
131 20z m704 -19 c383 -81 743 -281 1023 -567 307 -316 507 -745 553 -1189 5
-52 10 -101 10 -109 0 -7 -39 27 -87 76 -156 159 -329 267 -508 314 -107 29
-324 37 -450 16 -49 -8 -91 -14 -91 -13 -3 3 -574 1486 -574 1491 0 7 -2 7
124 -19z m-357 -327 c66 -228 170 -526 312 -897 72 -189 131 -347 131 -351 0
-5 -48 -28 -107 -52 -60 -23 -214 -92 -343 -152 -298 -138 -473 -213 -624
-266 -100 -35 -118 -39 -113 -24 2 10 84 227 182 483 210 550 293 784 405
1135 45 143 84 264 87 268 14 23 31 -13 70 -144z m1258 -1487 c128 -40 231
-107 351 -226 120 -121 195 -249 234 -401 l21 -80 -38 -105 c-65 -186 -196
-421 -322 -580 -19 -24 -20 -24 -27 -5 -4 11 -128 333 -276 715 -199 517 -264
696 -255 703 21 15 247 0 312 -21z m-3223 -174 c146 -197 358 -357 570 -429
l96 -32 -13 -36 c-7 -20 -71 -187 -142 -371 -71 -184 -133 -344 -137 -355 -7
-19 -8 -19 -27 5 -278 349 -440 810 -438 1245 0 97 1 99 17 75 9 -13 43 -59
74 -102z m2843 -721 c240 -634 304 -811 295 -822 -27 -33 -228 -158 -351 -218
-566 -278 -1200 -276 -1766 4 -135 67 -339 197 -348 222 -3 7 87 250 198 541
l203 530 94 21 c220 50 414 122 724 267 391 183 626 283 637 270 4 -4 145
-371 314 -815z"/>
</g>
</svg>
