<?xml version="1.0" standalone="no"?>
<!DOCTYPE svg PUBLIC "-//W3C//DTD SVG 20010904//EN"
 "http://www.w3.org/TR/2001/REC-SVG-20010904/DTD/svg10.dtd">
<svg version="1.0" xmlns="http://www.w3.org/2000/svg"
 width="500.000000pt" height="500.000000pt" viewBox="0 0 500.000000 500.000000"
 preserveAspectRatio="xMidYMid meet">

<g transform="translate(0.000000,500.000000) scale(0.100000,-0.100000)"
fill="#000000" stroke="none">
<path d="M0 2500 l0 -2500 2500 0 2500 0 0 2500 0 2500 -2500 0 -2500 0 0
-2500z m2790 2366 c650 -81 1224 -415 1623 -944 252 -335 418 -767 458 -1196
14 -156 7 -438 -16 -586 -130 -851 -716 -1570 -1528 -1874 -122 -46 -334 -101
-467 -121 -148 -23 -430 -30 -586 -16 -897 84 -1670 670 -1999 1516 -116 297
-161 572 -152 928 5 225 16 306 68 517 196 796 823 1452 1619 1693 104 32 309
74 410 86 125 14 446 12 570 -3z"/>
<path d="M2079 4455 c-294 -64 -622 -222 -839 -403 -195 -163 -360 -356 -470
-550 -100 -177 -106 -445 -13 -648 60 -133 149 -246 278 -351 128 -104 341
-195 357 -152 83 211 818 2120 818 2124 0 8 -16 5 -131 -20z"/>
<path d="M2790 4475 c0 -5 571 -1488 574 -1491 0 -1 37 4 81 12 44 7 139 13
210 13 106 1 149 -4 230 -24 193 -48 364 -151 528 -318 48 -49 87 -84 87 -78
0 42 -24 223 -41 311 -59 300 -216 627 -419 874 -61 75 -189 201 -280 278
-220 184 -548 341 -846 404 -126 26 -124 26 -124 19z"/>
<path d="M2487 4273 c-3 -4 -42 -125 -87 -268 -112 -351 -195 -585 -405 -1135
-98 -256 -180 -473 -182 -483 -10 -35 296 85 737 290 129 60 283 129 343 152
59 24 107 47 107 52 0 4 -59 162 -131 350 -163 428 -260 710 -336 978 -17 60
-34 83 -46 64z"/>
<path d="M3503 2663 c-9 -7 56 -186 255 -703 148 -382 272 -704 276 -715 7
-19 8 -19 27 5 126 159 257 394 322 580 l38 105 -21 80 c-39 152 -114 280
-234 401 -175 174 -318 242 -531 250 -66 3 -126 1 -132 -3z"/>
<path d="M501 2497 c-2 -198 35 -423 100 -622 67 -203 204 -457 338 -625 19
-24 20 -24 27 -5 4 11 66 171 137 355 71 184 135 351 142 371 l13 37 -85 27
c-250 82 -463 256 -655 535 -16 24 -17 22 -17 -73z"/>
<path d="M2993 2520 c-129 -52 -236 -100 -509 -228 -310 -145 -504 -217 -724
-267 l-94 -21 -203 -530 c-111 -291 -201 -534 -198 -541 9 -25 213 -155 348
-222 566 -280 1201 -281 1766 -4 123 60 324 185 351 218 9 11 -55 188 -295
822 -169 444 -310 811 -314 815 -3 4 -61 -15 -128 -42z"/>
</g>
</svg>
